<?xml version="1.0" standalone="no"?>
<!DOCTYPE svg PUBLIC "-//W3C//DTD SVG 20010904//EN"
 "http://www.w3.org/TR/2001/REC-SVG-20010904/DTD/svg10.dtd">
<svg version="1.0" xmlns="http://www.w3.org/2000/svg"
 width="1100.000000pt" height="1100.000000pt" viewBox="0 0 1100.000000 1100.000000"
 preserveAspectRatio="xMidYMid meet">
<metadata>
Created by potrace 1.14, written by Peter Selinger 2001-2017
</metadata>
<g transform="translate(0.000000,1100.000000) scale(0.100000,-0.100000)"
fill="#000000" stroke="none">
<path d="M6640 10544 c-31 -6 -113 -36 -120 -43 -11 -12 -50 -31 -64 -31 -8 0
-19 -6 -23 -13 -4 -8 -32 -30 -62 -50 -71 -49 -181 -148 -181 -164 0 -6 -4
-15 -10 -18 -6 -3 -7 1 -4 9 8 20 -3 21 -22 2 -10 -10 -11 -15 -2 -18 8 -3 2
-17 -15 -40 -15 -19 -27 -40 -27 -46 0 -6 -6 -15 -14 -19 -8 -5 -19 -19 -25
-33 l-10 -25 0 25 c-1 14 6 39 15 55 18 34 44 108 40 112 -1 2 -13 -15 -25
-37 -29 -52 -45 -52 -38 0 3 22 1 40 -4 40 -5 0 -9 -9 -9 -19 0 -11 -5 -23
-10 -26 -7 -4 -8 -11 -1 -18 5 -7 7 -34 5 -62 -2 -27 -4 -60 -5 -72 -1 -19 -3
-20 -15 -8 -20 20 -18 101 2 109 18 7 12 19 -10 22 -10 1 -17 -20 -25 -71 -12
-74 -29 -103 -53 -89 -11 6 -11 5 0 -8 27 -34 -37 -26 -80 10 -16 14 -22 10
-20 -10 1 -3 -23 0 -53 7 -29 6 -59 9 -66 4 -21 -12 -29 0 -19 26 5 14 8 25 5
25 -7 0 18 65 28 71 6 4 6 9 0 12 -6 4 -23 -26 -38 -66 -34 -87 -31 -83 -50
-67 -13 11 -18 10 -29 -5 -13 -18 -14 -18 -41 3 -32 26 -53 29 -34 6 12 -15
10 -16 -21 -9 -19 4 -42 13 -51 21 -8 8 -21 14 -27 14 -7 0 -13 10 -13 23 -1
16 -2 18 -6 5 -2 -10 -6 -18 -8 -18 -10 0 -62 26 -73 37 -17 16 -36 17 -26 1
4 -7 3 -8 -5 -4 -6 4 -9 11 -7 15 7 10 -11 36 -25 36 -7 0 -14 7 -16 15 -4 13
-3 13 7 0 10 -13 11 -12 6 3 -3 10 -6 21 -6 24 0 3 -8 -1 -17 -8 -9 -8 -14 -9
-10 -3 7 12 -21 39 -50 48 -11 4 -37 22 -59 41 -44 40 -141 88 -157 78 -5 -3
-7 -1 -3 5 3 6 -2 13 -12 16 -10 4 -48 26 -84 49 -36 24 -79 49 -95 54 -15 6
-37 14 -48 19 -11 4 -24 8 -30 8 -5 1 -33 5 -62 10 -31 5 -59 4 -69 -2 -15 -8
-11 -10 17 -10 37 -1 157 -27 167 -37 4 -3 -14 -2 -38 2 -66 12 -267 10 -327
-3 -29 -6 -50 -8 -48 -3 3 4 31 13 63 19 76 16 99 29 50 30 -38 0 -144 -35
-166 -55 -11 -10 -8 -12 15 -8 24 4 26 3 10 -7 -10 -7 -25 -9 -33 -6 -25 10
-158 -69 -219 -130 -20 -20 -33 -22 -116 -22 -55 0 -115 -6 -144 -15 -70 -21
-173 -71 -202 -99 -39 -37 -119 -149 -142 -200 -26 -57 -51 -173 -51 -234 0
-39 -7 -53 -59 -118 -58 -73 -118 -200 -108 -227 3 -9 9 -3 17 16 40 95 74
157 95 173 13 11 22 22 19 24 -2 3 3 11 12 19 15 12 16 10 12 -21 -3 -19 -7
-42 -10 -50 -3 -8 -3 -12 -1 -7 9 16 22 6 26 -20 3 -22 4 -20 6 10 1 46 21 40
21 -6 0 -18 7 -45 15 -61 22 -42 19 -98 -8 -137 -33 -49 -42 -68 -18 -39 20
24 21 24 21 4 0 -11 -7 -36 -16 -55 -23 -47 -96 -159 -105 -159 -4 0 -10 -16
-13 -35 -9 -47 -22 -52 -24 -9 -1 19 8 51 19 71 17 30 18 35 4 29 -9 -3 -19
-6 -21 -6 -2 0 -5 -10 -5 -22 -1 -15 -4 -11 -9 12 -7 32 -8 31 -10 -20 -2 -54
-2 -55 -12 -20 -18 65 -29 79 -23 30 9 -82 18 -115 31 -123 14 -8 13 -19 -1
-77 -4 -14 -12 -65 -19 -115 -7 -49 -15 -83 -18 -75 -11 30 -17 3 -24 -107 -4
-62 -10 -110 -14 -108 -19 12 -62 -98 -66 -167 -1 -25 -7 -55 -13 -67 -14 -25
-14 -68 -1 -76 6 -3 10 -31 10 -62 0 -48 10 -126 26 -212 7 -35 16 -18 16 31
-1 29 2 38 8 28 6 -8 10 -24 10 -35 0 -11 8 -36 18 -55 10 -19 24 -56 31 -82
10 -35 17 -45 28 -41 13 5 13 3 3 -16 -10 -19 -8 -26 7 -44 10 -12 22 -25 27
-28 4 -4 3 -16 -3 -27 -17 -31 -14 -108 5 -127 11 -11 13 -19 6 -28 -13 -16 2
-187 24 -282 15 -62 23 -76 66 -116 l49 -47 5 -146 c3 -90 2 -152 -4 -159 -15
-17 -19 -79 -6 -84 6 -2 16 9 23 24 15 33 24 22 40 -46 l9 -43 -29 6 c-22 4
-29 2 -29 -9 0 -8 9 -15 20 -15 13 0 18 -5 14 -15 -4 -9 3 -19 20 -26 32 -15
47 -4 21 15 -14 10 -15 15 -5 21 7 4 16 2 21 -6 14 -22 11 -37 -11 -52 -14
-10 -18 -20 -14 -32 7 -16 8 -17 19 -1 12 15 13 15 18 -3 3 -11 0 -22 -7 -25
-6 -2 4 -3 21 -2 18 2 31 0 28 -3 -2 -4 0 -13 6 -21 7 -12 9 -12 9 3 0 37 25
9 31 -34 3 -24 12 -59 19 -77 12 -31 11 -46 -4 -83 -5 -12 0 -18 17 -23 33 -8
40 -31 20 -62 -14 -22 -14 -27 -3 -34 12 -7 11 -12 -2 -27 -21 -23 -40 -73
-28 -73 5 0 12 9 15 20 3 11 10 20 15 20 10 0 2 -27 -24 -75 -9 -16 -16 -35
-16 -41 0 -6 -7 -17 -15 -24 -12 -10 -15 -10 -15 4 0 29 -17 17 -29 -21 -10
-31 -25 -45 -77 -76 -36 -21 -63 -44 -61 -50 4 -13 32 -14 60 -2 15 6 17 1 18
-41 1 -27 2 -67 3 -89 1 -22 -2 -50 -6 -62 -4 -14 -3 -23 3 -23 17 0 6 -71
-22 -150 -33 -92 -64 -216 -84 -335 -20 -121 -14 -469 10 -570 75 -318 76
-328 85 -600 5 -143 16 -325 25 -404 9 -78 15 -156 13 -171 -3 -16 -2 -27 2
-25 5 3 21 -95 36 -230 3 -22 7 -49 9 -60 7 -33 -7 -43 -85 -60 -41 -9 -87
-25 -102 -36 -15 -10 -33 -19 -39 -19 -41 0 -159 -48 -235 -96 -124 -79 -237
-131 -314 -144 -161 -28 -278 -68 -425 -143 -162 -84 -202 -101 -365 -158 -96
-34 -265 -85 -375 -115 -110 -30 -217 -58 -237 -64 l-38 -11 0 -1079 0 -1080
4125 0 4125 0 0 859 0 859 -42 16 c-80 29 -193 67 -258 87 -211 65 -312 116
-429 216 -36 30 -74 59 -86 63 -11 4 -41 17 -65 28 -65 29 -126 49 -205 67
-75 18 -104 29 -205 80 -36 18 -76 36 -90 40 -14 4 -43 15 -65 25 -22 10 -96
41 -165 69 -69 28 -147 68 -173 89 -27 20 -77 58 -110 83 -34 25 -63 53 -65
63 -4 19 73 211 95 237 7 8 13 21 13 28 0 6 15 42 33 79 19 37 55 122 82 189
30 76 53 123 62 123 8 0 27 -7 44 -15 16 -9 52 -20 80 -25 108 -21 199 34 262
159 20 39 54 94 76 123 46 59 52 67 66 90 6 9 51 69 100 133 50 64 101 133
114 153 13 20 37 56 52 80 16 23 29 49 29 57 0 8 5 15 10 15 6 0 10 11 10 25
0 16 6 25 16 25 9 0 18 9 21 20 3 11 11 20 18 20 20 0 25 39 7 49 -13 8 -14
13 -5 22 6 6 9 18 6 26 -3 8 4 27 16 43 11 16 21 36 21 45 0 8 5 15 10 15 6 0
15 12 21 27 l10 28 20 -25 19 -25 6 23 c4 12 13 22 21 22 8 0 20 15 28 32 8
19 14 26 15 16 0 -23 9 -23 26 0 8 10 13 12 14 5 0 -7 5 -13 11 -13 6 0 9 9 6
20 -8 32 13 23 24 -10 6 -16 13 -30 15 -30 11 0 49 47 46 57 -2 10 3 10 23 1
32 -15 42 -5 25 27 -7 14 -10 28 -7 32 4 3 7 -1 7 -10 0 -22 9 -21 27 1 8 9
12 12 9 6 -3 -7 4 -14 17 -18 32 -9 35 -8 33 11 0 11 6 18 19 18 18 0 20 6 18
59 -1 45 -6 63 -19 73 -10 7 -14 13 -8 13 5 1 -2 8 -16 16 -24 15 -24 15 15 8
106 -17 111 -13 105 90 -4 63 -2 86 7 86 26 0 22 21 -13 55 -35 35 -36 37 -28
88 4 29 7 55 6 60 -1 4 3 7 8 7 6 0 10 -28 10 -62 l1 -63 19 55 c11 30 20 69
20 85 0 23 3 27 10 15 5 -8 10 -10 10 -5 4 87 14 122 46 151 22 21 32 37 28
48 -3 9 -10 16 -15 16 -5 0 -9 6 -9 14 0 8 -6 17 -12 19 -8 3 -6 6 5 6 9 1 17
-3 17 -9 0 -5 4 -10 9 -10 5 0 7 9 4 20 -8 28 31 27 51 -2 15 -20 16 106 15
1357 -1 759 -3 1372 -6 1363 -2 -10 -6 -18 -9 -18 -2 0 -28 16 -59 35 -57 37
-75 60 -75 94 0 12 -4 21 -9 21 -12 0 -83 96 -109 145 -11 22 -30 50 -42 63
-11 12 -24 41 -28 65 -6 33 -12 43 -30 45 -12 2 -20 7 -17 11 2 5 -4 19 -15
31 -17 19 -27 69 -21 103 1 5 -3 25 -9 45 -7 27 -6 38 3 45 9 7 9 10 0 14 -8
3 -11 14 -7 29 3 13 2 24 -4 24 -5 0 -17 21 -27 48 -41 109 -127 207 -191 217
-22 3 -53 10 -70 15 -17 6 -41 10 -54 10 -13 0 -32 8 -43 18 -19 16 -20 16
-15 -5 6 -24 -15 -33 -27 -13 -3 6 -11 10 -17 10 -7 0 -6 -6 2 -15 10 -12 9
-15 -4 -15 -9 0 -19 7 -23 16 -6 15 -7 15 -19 0 -13 -19 -62 -24 -85 -10 -8 5
-18 9 -24 9 -22 1 -125 68 -125 81 0 8 -5 14 -12 14 -6 0 -8 -3 -5 -7 4 -3 2
-12 -4 -20 -13 -15 -59 -18 -59 -3 0 6 5 10 10 10 6 0 10 5 10 10 0 6 -7 10
-15 10 -8 0 -22 15 -32 33 -13 25 -18 28 -21 14 -2 -10 1 -24 8 -32 16 -20 -8
-24 -42 -8 -38 19 -42 30 -17 43 29 16 17 23 -15 9 -14 -7 -28 -10 -31 -7 -8
8 19 58 33 58 6 0 12 4 12 9 0 5 -6 11 -12 14 -10 3 -10 9 -1 25 7 11 8 22 3
24 -5 2 -11 14 -13 28 -8 46 -29 93 -37 80 -5 -8 -9 -7 -13 4 -3 8 -1 16 5 18
5 2 -8 16 -30 32 -22 15 -42 36 -45 46 -4 15 -88 68 -114 71 -5 1 -25 10 -45
20 -21 10 -46 19 -58 19 -23 0 -29 11 -61 130 -19 73 -41 125 -97 225 -6 11
-13 28 -16 38 -9 28 -27 9 -20 -21 l6 -27 -24 26 c-12 15 -50 40 -83 56 -85
42 -136 72 -168 99 -16 13 -33 24 -38 24 -5 0 -9 8 -10 18 0 9 -3 12 -5 5 -6
-13 -34 -6 -34 7 0 5 9 12 20 15 11 3 20 11 20 16 0 5 -13 3 -28 -5 -30 -16
-62 -6 -62 19 0 8 -7 15 -16 15 -8 0 -13 4 -10 8 2 4 -4 8 -15 8 -10 0 -19 -4
-19 -8 0 -4 5 -8 10 -8 6 0 10 -4 10 -10 0 -5 -14 -10 -31 -10 -16 0 -28 4
-24 9 3 6 -4 8 -15 6 -12 -2 -20 1 -20 10 0 11 -27 29 -40 25 -2 -1 -7 6 -10
16 -4 10 -9 13 -13 7 -3 -5 2 -19 12 -30 11 -12 16 -25 11 -33 -5 -9 -11 -7
-22 9 -8 11 -17 19 -19 17 -2 -1 -17 13 -34 32 -28 33 -29 35 -8 30 13 -3 26
-2 29 3 3 5 -5 10 -18 11 -44 3 -53 4 -75 12 -13 4 -23 12 -23 17 0 5 -9 9
-20 9 -11 0 -20 4 -20 9 0 5 -14 11 -30 15 -42 8 -250 15 -280 10z m207 -70
c-3 -3 -12 -4 -19 -1 -8 3 -5 6 6 6 11 1 17 -2 13 -5z m70 -55 c24 -24 39 -47
36 -55 -3 -8 1 -14 8 -14 11 0 11 -3 -1 -10 -21 -14 -30 -12 -30 4 0 8 -11 17
-25 20 -14 4 -25 11 -25 16 0 6 -5 10 -11 10 -5 0 -7 -4 -4 -10 3 -5 -1 -10
-11 -10 -13 0 -14 -3 -4 -15 9 -10 9 -15 1 -15 -6 0 -11 4 -11 9 0 5 -7 17
-16 25 -14 15 -13 17 11 26 14 5 31 10 36 10 10 0 12 13 3 22 -7 8 -77 -14
-86 -27 -4 -5 -8 0 -8 13 0 20 14 28 43 23 4 0 7 4 7 9 0 24 49 7 87 -31z
m-149 -17 c2 -7 -3 -12 -11 -12 -8 0 -20 -7 -27 -15 -7 -8 -21 -15 -31 -15 -9
0 -24 -7 -33 -15 -14 -15 -36 -20 -36 -9 0 20 25 43 52 49 17 4 38 14 46 22
16 15 34 13 40 -5z m-2376 -23 c-13 -5 -28 -7 -33 -3 -5 3 -9 0 -9 -5 0 -6 -5
-11 -12 -11 -18 0 -159 -70 -194 -97 -17 -12 -39 -23 -50 -23 -29 0 51 71 106
94 25 10 59 24 75 31 41 18 64 23 105 23 32 1 33 0 12 -9z m205 5 c-3 -3 -12
-4 -19 -1 -8 3 -5 6 6 6 11 1 17 -2 13 -5z m2226 -33 c17 -17 4 -22 -46 -15
-41 6 -45 8 -30 19 20 15 59 13 76 -4z m-2038 -1 c3 -6 -1 -7 -9 -4 -18 7 -21
14 -7 14 6 0 13 -4 16 -10z m2002 -28 c9 -6 0 -18 -29 -40 -42 -32 -57 -35
-113 -23 l-29 6 44 33 c44 32 98 42 127 24z m130 2 c-3 -3 -12 -4 -19 -1 -8 3
-5 6 6 6 11 1 17 -2 13 -5z m-301 -19 c-3 -19 -24 -41 -32 -33 -6 7 17 48 28
48 3 0 5 -7 4 -15z m-1941 -5 c8 -13 -15 -13 -35 0 -12 8 -11 10 7 10 12 0 25
-4 28 -10z m2165 4 c0 -18 -45 -59 -68 -62 l-27 -3 34 35 c31 32 61 47 61 30z
m-280 -19 c-7 -8 -18 -15 -24 -15 -6 0 -2 7 8 15 25 19 32 19 16 0z m310 0
c-7 -9 -15 -13 -17 -11 -7 7 7 26 19 26 6 0 6 -6 -2 -15z m-480 2 c0 -2 -17
-19 -37 -38 l-38 -34 34 38 c33 34 41 42 41 34z m-1726 -39 c-6 -10 -74 -6
-74 4 0 4 18 6 39 5 22 -1 37 -5 35 -9z m-787 -4 c-3 -3 -12 -4 -19 -1 -8 3
-5 6 6 6 11 1 17 -2 13 -5z m47 -6 c-3 -4 -11 -5 -19 -1 -21 7 -19 12 4 10 11
0 18 -5 15 -9z m424 -3 c-2 -1 -19 -5 -38 -9 -36 -7 -32 9 5 16 18 4 41 0 33
-7z m192 -5 c-8 -5 -28 -9 -45 -9 l-30 1 30 8 c17 4 37 8 45 9 13 1 13 0 0 -9z
m1965 -20 c-10 -11 -21 -18 -23 -15 -6 6 31 44 37 39 2 -2 -4 -13 -14 -24z
m193 25 c-6 -6 -25 -10 -108 -20 -53 -6 -63 6 -15 18 28 7 129 8 123 2z
m-2843 -13 c-13 -12 -121 -24 -109 -13 9 9 31 14 89 19 18 2 26 -1 20 -6z
m395 -15 c0 -8 -6 -14 -14 -14 -8 0 -12 6 -9 14 3 7 9 13 14 13 5 0 9 -6 9
-13z m155 3 c-3 -5 -10 -10 -16 -10 -5 0 -9 5 -9 10 0 6 7 10 16 10 8 0 12 -4
9 -10z m2005 7 c0 -2 -10 -12 -22 -23 l-23 -19 19 23 c18 21 26 27 26 19z m26
-35 c-22 -23 -29 -10 -9 18 11 16 18 19 21 11 2 -7 -3 -20 -12 -29z m-2491 18
c3 -5 -1 -10 -10 -10 -9 0 -13 5 -10 10 3 6 8 10 10 10 2 0 7 -4 10 -10z m419
-9 c-5 -5 -19 -12 -31 -16 -33 -9 -28 11 5 23 29 10 41 7 26 -7z m366 12 c0
-10 -121 -66 -127 -59 -7 7 41 36 68 41 12 3 27 9 33 15 12 12 26 13 26 3z
m-113 -14 c-10 -6 -25 -8 -33 -5 -8 3 -13 2 -11 -2 9 -14 -19 -32 -50 -32 -15
0 -16 -2 -3 -10 10 -6 11 -10 3 -10 -7 0 -22 9 -32 19 -15 15 -16 21 -6 25 8
3 16 0 19 -7 2 -7 5 -5 5 5 1 17 24 24 91 26 29 1 32 0 17 -9z m153 -20 c0 -4
-7 -6 -15 -3 -8 4 -15 10 -15 15 0 4 7 6 15 3 8 -4 15 -10 15 -15z m1953 2 c3
-13 -3 -27 -17 -38 l-21 -18 19 23 c11 12 14 22 8 22 -6 0 -9 7 -6 15 8 20 11
19 17 -4z m-443 2 c0 -5 -10 -19 -21 -33 l-21 -25 18 33 c18 32 24 38 24 25z
m357 -6 c12 -13 -19 -27 -47 -21 -24 4 -24 4 -3 -5 16 -7 21 -15 16 -28 -11
-29 -36 -53 -71 -70 -27 -13 -35 -14 -42 -3 -6 10 -9 9 -16 -2 -11 -18 -47
-38 -69 -38 -13 0 -12 6 8 33 14 17 28 42 31 54 12 39 31 46 66 25 l32 -20
-23 -16 c-13 -8 -20 -19 -16 -22 4 -4 15 0 25 9 10 10 24 17 30 17 29 0 -7 42
-47 55 -12 3 -21 10 -21 15 0 5 6 8 13 5 6 -2 28 2 47 9 37 14 74 15 87 3z
m-1908 -6 c9 -6 4 -10 -18 -13 -31 -4 -43 6 -18 15 18 8 21 8 36 -2z m101 -1
c0 -5 -5 -10 -11 -10 -5 0 -7 5 -4 10 3 6 8 10 11 10 2 0 4 -4 4 -10z m371 -7
c13 -16 12 -17 -3 -4 -10 7 -18 15 -18 17 0 8 8 3 21 -13z m1169 13 c0 -3 -4
-8 -10 -11 -5 -3 -10 -1 -10 4 0 6 5 11 10 11 6 0 10 -2 10 -4z m-2645 -62
c-20 -19 -34 -38 -31 -41 2 -3 16 7 29 21 31 33 41 33 33 -1 l-6 -28 16 30
c35 62 68 73 44 15 -16 -39 -6 -51 11 -12 9 20 18 28 30 25 15 -4 13 -11 -14
-51 -18 -26 -36 -50 -41 -53 -5 -4 -7 -18 -4 -31 3 -16 0 -25 -9 -25 -7 0 -13
5 -12 11 5 44 -17 49 -23 6 -3 -17 -1 -33 3 -35 14 -9 -15 -65 -34 -65 -11 0
-16 5 -12 13 3 6 -2 2 -11 -11 -14 -19 -72 -52 -91 -52 -9 0 8 75 22 97 17 25
20 57 5 48 -6 -4 -10 5 -10 21 0 26 -12 27 -15 1 -1 -7 -5 -38 -9 -69 -3 -31
-11 -69 -17 -85 -11 -26 -12 -27 -20 -8 -8 17 -8 16 -4 -6 4 -21 -1 -31 -21
-44 l-27 -17 6 68 c5 70 4 67 -22 -43 -7 -32 -10 -35 -16 -19 -15 34 14 137
59 213 19 33 23 21 21 -60 -1 -39 0 -57 2 -39 2 18 7 30 11 28 4 -2 6 12 5 32
-3 54 5 83 32 117 l25 30 -9 -32 c-13 -45 2 -42 18 3 9 25 23 40 46 50 19 7
36 18 40 24 3 5 13 10 21 10 10 0 2 -13 -21 -36z m2920 -4 c-9 -16 -20 -30
-26 -30 -11 0 -4 15 19 43 22 25 25 21 7 -13z m-2210 10 c-3 -5 -15 -10 -26
-10 -10 0 -19 5 -19 10 0 6 12 10 26 10 14 0 23 -4 19 -10z m1883 -10 c-7 -10
-14 -17 -17 -15 -4 4 18 35 25 35 2 0 -1 -9 -8 -20z m122 12 c0 -13 -62 -103
-67 -98 -7 7 48 106 59 106 4 0 8 -4 8 -8z m-1770 -11 c0 -4 -11 -6 -25 -3
-14 2 -25 6 -25 8 0 2 11 4 25 4 14 0 25 -4 25 -9z m2987 -33 c51 -45 61 -57
73 -97 11 -41 5 -55 -9 -20 -10 24 -10 24 -10 -4 -1 -24 -4 -28 -23 -23 -13 3
-17 3 -10 0 6 -3 12 -12 12 -20 0 -13 5 -12 30 3 17 9 30 22 30 28 0 5 4 4 9
-4 5 -8 7 -20 4 -28 -3 -7 0 -13 6 -13 6 0 11 -4 11 -10 0 -5 -7 -10 -15 -10
-8 0 -15 5 -15 10 0 6 -7 10 -15 10 -17 0 -20 -16 -5 -25 6 -3 10 -22 10 -41
0 -32 -2 -34 -32 -33 -50 2 -83 13 -86 28 -2 9 3 11 14 7 11 -4 15 -2 11 7 -3
8 -1 20 3 28 6 8 5 16 -2 20 -6 4 -10 18 -10 33 0 35 -15 33 -23 -4 -4 -17
-10 -28 -14 -25 -12 7 -12 128 0 145 8 12 9 9 5 -11 -4 -17 0 -30 14 -42 19
-16 19 -15 13 16 -3 18 -11 49 -18 70 -15 45 -7 47 42 5z m-3056 -5 c7 -10 9
-15 5 -11 -5 4 -15 3 -23 -4 -17 -13 -28 -4 -20 17 8 20 21 19 38 -2z m-171 3
c0 -3 -4 -8 -10 -11 -5 -3 -10 -1 -10 4 0 6 5 11 10 11 6 0 10 -2 10 -4z m115
-16 c3 -6 -1 -7 -9 -4 -18 7 -21 14 -7 14 6 0 13 -4 16 -10z m-20 -30 c-3 -5
-13 -10 -21 -10 -8 0 -14 5 -14 10 0 6 9 10 21 10 11 0 17 -4 14 -10z m939
-26 c6 -15 4 -15 -11 -3 -10 7 -20 15 -22 16 -2 2 3 3 11 3 9 0 19 -7 22 -16z
m1973 -16 c-3 -7 -5 -2 -5 12 0 14 2 19 5 13 2 -7 2 -19 0 -25z m-3626 -1
c-10 -9 -11 -8 -5 6 3 10 9 15 12 12 3 -3 0 -11 -7 -18z m2004 13 c4 -6 -15
-10 -49 -10 -31 0 -56 5 -56 10 0 6 22 10 49 10 28 0 53 -4 56 -10z m689 -11
c-16 -16 -27 -19 -50 -13 l-29 7 30 13 c17 7 39 13 50 14 19 0 19 0 -1 -21z
m-874 1 c-20 -13 -33 -13 -25 0 3 6 14 10 23 10 15 0 15 -2 2 -10z m-758 -23
c-24 -11 -38 -5 -28 11 3 6 16 8 28 4 l22 -5 -22 -10z m648 19 c0 -3 -4 -8
-10 -11 -5 -3 -10 -1 -10 4 0 6 5 11 10 11 6 0 10 -2 10 -4z m1970 -26 c0 -16
-4 -30 -8 -30 -5 0 -7 14 -4 30 2 17 6 30 8 30 2 0 4 -13 4 -30z m-3505 1 c-3
-6 -11 -11 -17 -11 -6 0 -6 6 2 15 14 17 26 13 15 -4z m2445 -30 c-14 -9 -32
-23 -41 -33 -10 -9 -20 -14 -23 -11 -8 8 17 43 32 43 7 0 10 5 7 10 -12 19 5
31 28 19 l21 -12 -24 -16z m744 -7 c3 -16 7 -37 11 -46 11 -28 -10 -21 -23 7
-13 29 -15 58 -5 68 9 10 13 4 17 -29z m-94 17 c0 -5 -7 -14 -15 -21 -8 -7
-15 -17 -15 -23 0 -6 12 0 26 14 l26 24 -7 -24 c-5 -16 -4 -21 4 -17 16 10 24
-19 12 -42 -9 -18 -68 -50 -75 -41 -1 2 -10 22 -18 44 l-16 39 32 28 c32 29
46 34 46 19z m-710 -11 c0 -5 -5 -10 -11 -10 -5 0 -7 5 -4 10 3 6 8 10 11 10
2 0 4 -4 4 -10z m-2370 -3 c0 -2 -14 -16 -32 -33 l-32 -29 25 32 c20 27 39 41
39 30z m2290 -12 c0 -8 -4 -15 -10 -15 -5 0 -7 7 -4 15 4 8 8 15 10 15 2 0 4
-7 4 -15z m50 -25 c0 -5 -5 -10 -11 -10 -5 0 -7 5 -4 10 3 6 8 10 11 10 2 0 4
-4 4 -10z m670 -67 c0 -17 -37 -36 -45 -23 -6 9 -30 -7 -66 -44 -37 -38 -29
-8 10 42 51 64 72 77 89 55 6 -9 12 -23 12 -30z m-3313 -5 c-8 -12 -18 -34
-22 -48 -6 -19 -1 -16 19 13 14 21 26 44 26 52 0 8 5 15 11 15 7 0 8 -7 4 -17
-4 -10 -8 -22 -9 -28 -2 -5 -9 -23 -16 -40 -33 -77 -40 -93 -40 -98 0 -2 -7
-22 -16 -43 -15 -34 -18 -36 -24 -19 -4 11 -3 26 2 33 6 6 7 12 4 12 -4 0 0
10 8 22 9 12 16 26 16 31 0 14 -61 -46 -70 -68 -7 -18 -9 -19 -15 -2 -4 9 -4
25 0 35 7 15 10 35 14 99 0 13 15 29 36 42 34 20 47 17 23 -7 -6 -6 -9 -14 -5
-18 10 -10 27 6 27 26 0 10 8 23 17 29 24 13 27 7 10 -21z m4103 -18 c0 -12
-3 -12 -16 2 -9 9 -13 21 -9 28 9 14 25 -5 25 -30z m-713 -6 c-3 -3 -12 -4
-19 -1 -8 3 -5 6 6 6 11 1 17 -2 13 -5z m113 -37 c0 -27 -19 -10 -25 22 -3 19
-2 21 10 11 8 -7 15 -22 15 -33z m-40 13 c9 -17 7 -22 -12 -29 -60 -22 -76
-22 -81 1 -4 13 -1 26 6 30 21 13 29 9 22 -12 -9 -28 6 -25 29 5 23 30 23 30
36 5z m532 5 l36 -6 -3 -57 c-1 -31 -3 -65 -4 -74 -1 -11 -6 -15 -16 -12 -13
5 -13 10 0 41 18 44 19 48 1 34 -7 -6 -16 -25 -20 -41 -7 -36 -15 -37 -65 -5
-30 18 -38 29 -34 45 3 11 12 20 20 20 9 0 11 5 6 13 -21 33 -11 59 20 53 12
-3 38 -7 59 -11z m-782 -54 c-17 -17 -37 -31 -43 -31 -7 1 6 16 27 35 48 43
59 40 16 -4z m130 13 c0 -15 -4 -23 -10 -19 -6 4 -16 2 -23 -3 -21 -16 -77
-32 -77 -21 0 5 4 9 9 9 5 0 16 6 23 13 19 19 61 47 70 47 5 0 8 -12 8 -26z
m746 12 c12 -13 12 -17 -1 -30 -17 -17 -20 -30 -5 -21 17 10 11 -4 -10 -25
l-20 -20 0 20 c0 12 7 32 16 45 10 15 12 25 5 25 -6 0 -11 5 -11 10 0 14 9 12
26 -4z m-4242 -20 c-3 -9 -10 -16 -15 -16 -14 0 -11 28 4 33 16 6 19 3 11 -17z
m4411 -9 c30 -17 41 -29 43 -51 6 -52 -15 -55 -58 -7 -22 24 -40 52 -40 62 0
23 5 23 55 -4z m-4389 -24 c-13 -85 -17 -98 -26 -107 -7 -7 -10 -2 -10 15 0
19 -2 21 -10 9 -8 -12 -10 -10 -10 8 0 13 -4 20 -10 17 -5 -3 -10 -1 -10 4 0
6 5 11 10 11 6 0 8 11 4 25 -4 16 -2 25 5 25 6 0 14 -14 18 -30 9 -46 19 -31
22 30 0 17 6 30 12 30 7 0 9 -13 5 -37z m4514 -39 c55 -32 140 -120 140 -145
0 -6 3 -8 8 -6 4 3 7 -13 7 -34 1 -24 -4 -39 -11 -39 -7 0 -14 -6 -16 -12 -3
-8 -9 -4 -17 10 -13 24 -59 30 -104 13 -24 -9 -100 15 -98 31 0 5 -2 15 -6 23
-3 9 2 22 13 31 16 12 17 13 2 8 -13 -4 -21 1 -28 21 -13 35 -13 36 8 33 13
-2 19 8 26 50 5 28 11 52 12 52 2 0 30 -16 64 -36z m-1010 12 c0 -8 -13 -16
-29 -18 -34 -5 -32 18 2 25 12 2 23 5 25 6 1 0 2 -5 2 -13z m54 0 c-21 -15
-30 -14 -19 3 3 6 14 11 23 11 13 0 13 -2 -4 -14z m62 5 c-3 -5 -21 -14 -38
-20 l-33 -11 25 20 c25 20 56 27 46 11z m730 -28 c-3 -8 -1 -11 4 -8 6 3 10
-1 10 -10 0 -8 -7 -18 -15 -21 -13 -5 -13 -8 1 -21 23 -23 14 -57 -16 -61 -18
-2 -21 0 -11 6 7 6 11 14 7 20 -10 16 5 122 16 116 5 -3 7 -13 4 -21z m-1077
14 c-2 -1 -13 -9 -24 -17 -19 -14 -19 -14 -6 3 7 9 18 17 24 17 6 0 8 -1 6 -3z
m66 -24 c-16 -8 -40 -25 -52 -36 -13 -11 -23 -16 -23 -10 0 13 70 62 90 62 8
0 2 -7 -15 -16z m81 0 c-4 -5 -11 -8 -14 -8 -4 -1 -18 -6 -32 -13 l-25 -13 24
20 c21 19 64 31 47 14z m61 -20 c-9 -9 -19 -14 -23 -11 -10 10 6 28 24 28 15
0 15 -1 -1 -17z m148 7 c-3 -5 -10 -10 -16 -10 -5 0 -9 5 -9 10 0 6 7 10 16
10 8 0 12 -4 9 -10z m430 -1 c4 -6 0 -9 -10 -7 -10 2 -20 -3 -23 -10 -3 -10 4
-12 32 -7 31 6 35 5 30 -9 -8 -21 0 -20 21 0 12 13 19 14 28 5 8 -8 7 -11 -6
-11 -9 0 -17 -4 -17 -10 0 -12 -69 -6 -98 9 -22 11 -28 31 -15 44 10 11 51 8
58 -4z m-625 -24 c-7 -9 -15 -13 -17 -11 -7 7 7 26 19 26 6 0 6 -6 -2 -15z
m-3501 -12 c-1 -10 3 -29 7 -43 10 -35 -2 -21 -21 23 -13 32 -13 37 -1 37 8 0
15 -8 15 -17z m86 -10 c-1 -34 -20 -71 -31 -60 -5 4 -3 17 4 27 7 11 12 29 12
40 0 11 4 20 8 20 4 0 7 -12 7 -27z m3603 10 c-5 -25 -28 -28 -28 -4 0 12 6
21 16 21 9 0 14 -7 12 -17z m-38 -14 c0 -6 -4 -7 -10 -4 -5 3 -10 11 -10 16 0
6 5 7 10 4 6 -3 10 -11 10 -16z m90 1 c0 -5 -2 -10 -4 -10 -3 0 -8 5 -11 10
-3 6 -1 10 4 10 6 0 11 -4 11 -10z m339 -13 c8 -10 7 -14 -4 -14 -8 0 -15 6
-15 14 0 7 2 13 4 13 2 0 9 -6 15 -13z m-704 -17 c3 -5 2 -10 -4 -10 -5 0 -13
5 -16 10 -3 6 -2 10 4 10 5 0 13 -4 16 -10z m795 -10 c0 -5 -2 -10 -4 -10 -3
0 -8 5 -11 10 -3 6 -1 10 4 10 6 0 11 -4 11 -10z m290 -30 c0 -5 -7 -10 -15
-10 -8 0 -15 5 -15 10 0 6 7 10 15 10 8 0 15 -4 15 -10z m-13 -46 c-7 -7 -37
7 -37 17 0 6 9 5 21 -1 11 -7 19 -14 16 -16z m233 -21 c-2 -35 -57 -55 -90
-33 -13 8 -12 10 5 11 11 1 26 0 34 -1 9 -1 12 4 8 14 -5 12 0 16 18 16 14 0
25 -3 25 -7z m40 -65 c0 -7 -5 -20 -10 -28 -8 -13 -11 -12 -24 5 -11 15 -11
22 -3 27 18 12 37 9 37 -4z m-40 -64 c0 -8 -4 -12 -10 -9 -5 3 -10 10 -10 16
0 5 5 9 10 9 6 0 10 -7 10 -16z m320 -114 c8 -5 12 -11 10 -14 -3 -2 -14 2
-24 10 -22 15 -10 19 14 4z m-19 -27 c13 -15 12 -15 -8 -4 -24 12 -29 21 -14
21 5 0 15 -7 22 -17z m54 7 c3 -5 1 -10 -4 -10 -6 0 -11 5 -11 10 0 6 2 10 4
10 3 0 8 -4 11 -10z m32 -43 c7 0 10 -3 8 -7 -6 -10 -54 0 -61 12 -4 6 2 7 17
2 13 -4 29 -7 36 -7z m333 -32 c6 -8 9 -18 6 -24 -7 -10 5 -15 64 -27 53 -10
97 -34 111 -60 6 -13 16 -21 21 -18 4 3 8 -2 8 -10 0 -8 -4 -18 -10 -21 -5 -3
-10 1 -10 9 0 8 -9 20 -19 26 -11 5 -25 16 -33 23 -7 7 -36 21 -63 31 -28 10
-57 21 -65 24 -8 3 -18 5 -21 4 -4 -1 -5 7 -2 18 4 15 1 18 -16 15 -13 -2 -21
1 -21 11 0 18 34 18 50 -1z m88 2 c40 -12 119 -74 108 -85 -3 -2 -27 10 -54
27 -27 17 -60 31 -74 31 -17 0 -27 7 -31 20 -6 23 -5 24 51 7z m-81 -123 c-3
-3 -12 -4 -19 -1 -8 3 -5 6 6 6 11 1 17 -2 13 -5z m230 -67 c3 -21 2 -21 -12
-3 -8 10 -12 23 -9 28 8 13 17 2 21 -25z m-5907 -254 c-11 -17 -11 -17 -6 0 3
10 7 26 7 35 1 15 2 15 6 0 2 -10 -1 -25 -7 -35z m6000 -63 c0 -5 -2 -10 -4
-10 -3 0 -8 5 -11 10 -3 6 -1 10 4 10 6 0 11 -4 11 -10z m-6032 -129 c-7 -9
-15 -18 -18 -21 -3 -3 -16 -21 -28 -40 -24 -39 -28 -31 -11 21 15 44 37 69 55
62 12 -4 12 -8 2 -22z m13 -143 c-9 -45 -7 -63 7 -60 7 1 12 -4 12 -10 0 -8
-15 -14 -35 -15 -31 -3 -35 0 -35 22 0 14 7 28 15 31 8 4 13 10 10 15 -4 6 23
49 31 49 1 0 -1 -15 -5 -32z m-8 -112 c6 -16 -2 -28 -14 -20 -12 7 -11 34 0
34 5 0 11 -6 14 -14z m34 -1 c0 -8 -4 -15 -9 -15 -4 0 -8 7 -8 15 0 8 4 15 8
15 5 0 9 -7 9 -15z m-77 -16 c0 -11 -4 -18 -10 -14 -5 3 -7 12 -3 20 7 21 13
19 13 -6z m85 -39 c3 -5 1 -10 -4 -10 -6 0 -11 5 -11 10 0 6 2 10 4 10 3 0 8
-4 11 -10z m-50 -10 c11 -18 15 -81 5 -75 -16 10 -11 -8 10 -35 11 -14 20 -32
20 -40 0 -9 5 -21 12 -28 6 -6 9 -14 6 -17 -3 -3 -21 14 -41 38 -32 40 -35 47
-27 81 7 31 5 41 -11 57 -10 10 -19 21 -19 24 0 9 39 5 45 -5z m42 -52 c-3 -8
-6 -5 -6 6 -1 11 2 17 5 13 3 -3 4 -12 1 -19z m6344 -15 c13 -16 12 -17 -3 -4
-10 7 -18 15 -18 17 0 8 8 3 21 -13z m-6311 -43 c0 -13 -1 -13 -10 0 -5 8 -10
22 -10 30 0 13 1 13 10 0 5 -8 10 -22 10 -30z m-16 -126 c3 -8 2 -12 -4 -9 -6
3 -10 10 -10 16 0 14 7 11 14 -7z m26 -34 c0 -5 -2 -10 -4 -10 -3 0 -8 5 -11
10 -3 6 -1 10 4 10 6 0 11 -4 11 -10z m-22 -75 c-3 -3 -9 2 -12 12 -6 14 -5
15 5 6 7 -7 10 -15 7 -18z m232 -1071 c0 -8 -4 -12 -10 -9 -5 3 -10 10 -10 16
0 5 5 9 10 9 6 0 10 -7 10 -16z m60 -991 c0 -23 -4 -33 -9 -27 -9 8 -4 64 5
64 2 0 4 -17 4 -37z m31 -34 c-6 -16 -10 -18 -10 -7 -1 22 12 55 16 42 2 -6
-1 -22 -6 -35z m5954 -380 c-10 -15 -25 -10 -19 6 4 8 10 12 15 9 5 -3 7 -10
4 -15z m-78 -155 c-6 -78 -16 -78 -14 -1 0 36 5 63 10 60 4 -3 6 -29 4 -59z
m-104 -197 c3 -8 1 -20 -4 -28 -6 -10 -9 -7 -9 14 0 29 5 35 13 14z"/>
<path d="M3526 9925 c-9 -26 -7 -32 5 -12 6 10 9 21 6 23 -2 3 -7 -2 -11 -11z"/>
<path d="M7640 9658 c0 -4 7 -8 15 -8 8 0 15 4 15 8 0 5 -7 9 -15 9 -8 0 -15
-4 -15 -9z"/>
<path d="M8320 9309 c0 -5 5 -7 10 -4 6 3 10 8 10 11 0 2 -4 4 -10 4 -5 0 -10
-5 -10 -11z"/>
<path d="M3315 9159 c-11 -17 1 -21 15 -4 8 9 8 15 2 15 -6 0 -14 -5 -17 -11z"/>
<path d="M3190 7769 c0 -8 7 -24 16 -35 14 -18 15 -18 8 6 -8 31 -24 50 -24
29z"/>
</g>
</svg>
